<?xml version="1.0" encoding="utf-8"?>
<!-- Generator: Adobe Illustrator 25.4.1, SVG Export Plug-In . SVG Version: 6.00 Build 0)  -->
<svg version="1.1" id="Layer_1" xmlns="http://www.w3.org/2000/svg" xmlns:xlink="http://www.w3.org/1999/xlink" x="0px" y="0px"
	 viewBox="0 0 11.25 15" style="enable-background:new 0 0 11.25 15;" xml:space="preserve">
<style type="text/css">
	.st0{fill:#A7B2BA;}
</style>
<path class="st0" d="M5.332,7.5C5.293,7.363,5.264,7.188,5.244,6.973c-0.02-0.234-0.029-0.43-0.029-0.586
	c0-0.176,0.02-0.264,0.059-0.264c0.117,0,0.176,0.195,0.176,0.586C5.449,7.1,5.41,7.363,5.332,7.5z M5.273,8.877
	c0.273,0.508,0.615,0.908,1.025,1.201c-0.234,0.039-0.85,0.254-1.846,0.645C4.707,10.254,4.98,9.639,5.273,8.877z M2.52,12.539
	c0.078-0.215,0.42-0.605,1.025-1.172c-0.117,0.195-0.234,0.371-0.352,0.527c-0.117,0.137-0.215,0.254-0.293,0.352
	c-0.078,0.078-0.146,0.146-0.205,0.205c-0.059,0.039-0.107,0.068-0.146,0.088C2.529,12.539,2.52,12.539,2.52,12.539z M7.266,4.688
	h3.984v9.609c0,0.195-0.068,0.361-0.205,0.498S10.742,15,10.547,15H0.703c-0.195,0-0.361-0.068-0.498-0.205
	C0.068,14.658,0,14.492,0,14.297V0.703c0-0.195,0.068-0.361,0.205-0.498C0.342,0.068,0.508,0,0.703,0h5.859v3.984
	c0,0.195,0.068,0.361,0.205,0.498S7.07,4.688,7.266,4.688z M7.031,9.727c-0.566-0.352-0.986-0.879-1.26-1.582
	C6.006,7.227,6.074,6.602,5.977,6.27c-0.059-0.273-0.195-0.459-0.41-0.557c-0.195-0.117-0.4-0.137-0.615-0.059
	C4.736,5.732,4.609,5.869,4.57,6.064C4.453,6.494,4.531,7.246,4.805,8.32c-0.449,1.055-0.85,1.894-1.201,2.519
	c-0.566,0.274-1.035,0.596-1.406,0.967c-0.371,0.371-0.439,0.713-0.205,1.025c0.156,0.195,0.371,0.293,0.645,0.293
	c0.488,0,1.084-0.606,1.787-1.816c1.211-0.391,1.982-0.615,2.314-0.674c0.703,0.371,1.328,0.557,1.875,0.557
	c0.391,0,0.635-0.166,0.732-0.498c0.098-0.332,0.049-0.586-0.146-0.762C8.887,9.639,8.164,9.57,7.031,9.727z M11.045,3.076
	c0.137,0.137,0.205,0.303,0.205,0.498V3.75H7.5V0h0.176c0.195,0,0.361,0.068,0.498,0.205L11.045,3.076z M8.877,10.547
	c-0.117,0.137-0.537,0.049-1.26-0.264C8.457,10.264,8.877,10.352,8.877,10.547z"/>
</svg>
