<?xml version="1.0" encoding="utf-8"?>
<!-- Generator: Adobe Illustrator 25.4.1, SVG Export Plug-In . SVG Version: 6.00 Build 0)  -->
<svg version="1.1" id="Layer_1" xmlns="http://www.w3.org/2000/svg" xmlns:xlink="http://www.w3.org/1999/xlink" x="0px" y="0px"
	 viewBox="0 0 14.009 12.25" style="enable-background:new 0 0 14.009 12.25;" xml:space="preserve">
<style type="text/css">
	.st0{fill:#2E3438;}
</style>
<path class="st0" d="M6.572,1.75c-0.128,0-0.237-0.036-0.328-0.109C6.171,1.549,6.134,1.44,6.134,1.312V0.438
	c0-0.128,0.036-0.228,0.109-0.301C6.335,0.046,6.444,0,6.572,0h1.75c0.128,0,0.228,0.046,0.301,0.137
	C8.714,0.21,8.759,0.31,8.759,0.438v0.875c0,0.128-0.046,0.237-0.137,0.328C8.549,1.714,8.449,1.75,8.322,1.75H6.572z M6.572,5.25
	c-0.128,0-0.237-0.036-0.328-0.109C6.171,5.049,6.134,4.94,6.134,4.812V3.937c0-0.128,0.036-0.228,0.109-0.301
	C6.335,3.546,6.444,3.5,6.572,3.5h3.5c0.128,0,0.228,0.046,0.301,0.137c0.091,0.073,0.137,0.173,0.137,0.301v0.875
	c0,0.128-0.045,0.237-0.137,0.328c-0.073,0.073-0.173,0.109-0.301,0.109H6.572z M13.572,10.5c0.128,0,0.228,0.046,0.301,0.137
	c0.091,0.073,0.137,0.173,0.137,0.301v0.875c0,0.128-0.045,0.228-0.137,0.301c-0.073,0.091-0.173,0.137-0.301,0.137h-7
	c-0.128,0-0.237-0.046-0.328-0.137c-0.073-0.073-0.109-0.173-0.109-0.301v-0.875c0-0.128,0.036-0.228,0.109-0.301
	C6.335,10.546,6.444,10.5,6.572,10.5H13.572z M6.572,8.75c-0.128,0-0.237-0.036-0.328-0.109C6.171,8.549,6.134,8.44,6.134,8.312
	V7.437c0-0.128,0.036-0.228,0.109-0.301C6.335,7.046,6.444,7,6.572,7h5.25c0.128,0,0.228,0.046,0.301,0.137
	c0.091,0.073,0.137,0.173,0.137,0.301v0.875c0,0.128-0.045,0.237-0.137,0.328c-0.073,0.073-0.173,0.109-0.301,0.109H6.572z
	 M4.822,8.75c0.201,0,0.337,0.091,0.41,0.273s0.036,0.337-0.109,0.465l-2.188,2.625c-0.073,0.091-0.173,0.137-0.301,0.137
	c-0.128,0-0.228-0.046-0.301-0.137L0.146,9.488C0,9.361-0.036,9.206,0.036,9.023c0.073-0.182,0.21-0.273,0.41-0.273h1.312V0.438
	c0-0.128,0.036-0.228,0.109-0.301C1.96,0.046,2.069,0,2.197,0h0.875c0.128,0,0.228,0.046,0.301,0.137
	C3.464,0.21,3.509,0.31,3.509,0.438V8.75H4.822z"/>
</svg>
