<?xml version="1.0" encoding="utf-8"?>
<!-- Generator: Adobe Illustrator 24.3.0, SVG Export Plug-In . SVG Version: 6.00 Build 0)  -->
<svg version="1.1" id="Layer_1" xmlns="http://www.w3.org/2000/svg" xmlns:xlink="http://www.w3.org/1999/xlink" x="0px" y="0px"
	 viewBox="0 0 18.75 15" style="enable-background:new 0 0 18.75 15;" xml:space="preserve">
<style type="text/css">
	.st0{fill:#2E3438;}
</style>
<path class="st0" d="M7.471,7.676L5.771,5.947c-0.234-0.215-0.234-0.43,0-0.645l1.699-1.729c0.215-0.215,0.439-0.215,0.674,0
	l0.322,0.352c0.215,0.215,0.215,0.43,0,0.645L7.412,5.625L8.467,6.68c0.215,0.215,0.215,0.43,0,0.645L8.145,7.676
	C7.91,7.891,7.686,7.891,7.471,7.676z M10.283,7.324c-0.215-0.215-0.215-0.43,0-0.645l1.055-1.055L10.283,4.57
	c-0.215-0.215-0.215-0.43,0-0.645l0.322-0.352c0.234-0.215,0.459-0.215,0.674,0l1.699,1.729c0.234,0.215,0.234,0.43,0,0.645
	l-1.699,1.729c-0.215,0.215-0.439,0.215-0.674,0L10.283,7.324z M18.281,12.188c0.137,0,0.244,0.049,0.322,0.146
	c0.098,0.078,0.146,0.186,0.146,0.322v0.469c0,0.508-0.185,0.947-0.557,1.318C17.822,14.814,17.383,15,16.875,15h-15
	c-0.508,0-0.947-0.186-1.318-0.557C0.186,14.072,0,13.633,0,13.125v-0.469c0-0.137,0.039-0.244,0.117-0.322
	c0.098-0.098,0.215-0.146,0.352-0.146h7.002c0,0.215,0.098,0.43,0.293,0.644c0.195,0.195,0.42,0.293,0.674,0.293h1.787
	c0.273,0,0.498-0.078,0.674-0.234c0.176-0.176,0.273-0.41,0.293-0.703H18.281z M16.875,1.406v9.844h-15V1.406
	c0-0.391,0.137-0.723,0.41-0.996C2.559,0.137,2.891,0,3.281,0h12.188c0.391,0,0.723,0.137,0.996,0.41
	C16.738,0.684,16.875,1.016,16.875,1.406z M15,9.375v-7.5H3.75v7.5H15z"/>
</svg>
