<?xml version="1.0" encoding="utf-8"?>
<!-- Generator: Adobe Illustrator 24.3.0, SVG Export Plug-In . SVG Version: 6.00 Build 0)  -->
<svg version="1.1" id="Layer_1" xmlns="http://www.w3.org/2000/svg" xmlns:xlink="http://www.w3.org/1999/xlink" x="0px" y="0px"
	 viewBox="0 0 16.875 13.125" style="enable-background:new 0 0 16.875 13.125;" xml:space="preserve">
<style type="text/css">
	.st0{fill:#2E3438;}
</style>
<path class="st0" d="M8.203,3.398C8.281,3.359,8.359,3.34,8.438,3.34c0.078,0,0.156,0.02,0.234,0.059l5.391,4.453v4.805
	c0,0.137-0.049,0.244-0.146,0.322c-0.078,0.098-0.186,0.146-0.322,0.146h-3.281c-0.137,0-0.254-0.049-0.352-0.146
	c-0.078-0.098-0.117-0.205-0.117-0.322V9.844c0-0.078-0.02-0.156-0.059-0.234C9.746,9.531,9.688,9.473,9.609,9.434
	C9.531,9.395,9.453,9.375,9.375,9.375H7.5c-0.137,0-0.254,0.049-0.352,0.147C7.07,9.6,7.031,9.707,7.031,9.844v2.812
	c0,0.117-0.049,0.225-0.146,0.322c-0.078,0.098-0.186,0.146-0.322,0.146H3.281c-0.137,0-0.254-0.049-0.352-0.146
	c-0.078-0.078-0.117-0.186-0.117-0.322V7.852L8.203,3.398z M16.758,6.416c0.078,0.078,0.117,0.176,0.117,0.293
	c0,0.078-0.029,0.146-0.088,0.205l-0.732,0.908c-0.078,0.098-0.166,0.146-0.264,0.146c-0.098,0-0.176-0.029-0.234-0.088L8.672,2.197
	C8.594,2.158,8.516,2.139,8.438,2.139c-0.078,0-0.156,0.02-0.234,0.059L1.318,7.881C1.26,7.939,1.191,7.969,1.113,7.969
	c-0.117,0-0.215-0.049-0.293-0.146L0.088,6.914C0.029,6.855,0,6.787,0,6.709c0-0.117,0.039-0.215,0.117-0.293l7.412-6.094
	C7.803,0.107,8.105,0,8.438,0C8.77,0,9.063,0.107,9.316,0.322l2.637,2.168V0.352c0-0.098,0.029-0.176,0.088-0.234
	C12.119,0.039,12.207,0,12.305,0h1.641c0.098,0,0.176,0.039,0.234,0.117c0.078,0.059,0.117,0.137,0.117,0.234v4.072L16.758,6.416z"
	/>
</svg>
