<?xml version="1.0" encoding="utf-8"?>
<!-- Generator: Adobe Illustrator 24.3.0, SVG Export Plug-In . SVG Version: 6.00 Build 0)  -->
<svg version="1.1" id="Layer_1" xmlns="http://www.w3.org/2000/svg" xmlns:xlink="http://www.w3.org/1999/xlink" x="0px" y="0px"
	 viewBox="0 0 18.75 13.125" style="enable-background:new 0 0 18.75 13.125;" xml:space="preserve">
<style type="text/css">
	.st0{fill:#2E3438;}
</style>
<path class="st0" d="M4.131,5.068C3.76,5.439,3.32,5.625,2.812,5.625S1.865,5.439,1.494,5.068S0.938,4.258,0.938,3.75
	c0-0.508,0.186-0.947,0.557-1.318s0.811-0.557,1.318-0.557S3.76,2.061,4.131,2.432S4.688,3.242,4.688,3.75
	C4.688,4.258,4.502,4.697,4.131,5.068z M17.256,5.068c-0.371,0.371-0.811,0.557-1.318,0.557c-0.508,0-0.947-0.186-1.318-0.557
	c-0.371-0.371-0.557-0.811-0.557-1.318c0-0.508,0.186-0.947,0.557-1.318c0.371-0.371,0.811-0.557,1.318-0.557
	c0.508,0,0.947,0.186,1.318,0.557c0.371,0.371,0.557,0.811,0.557,1.318C17.812,4.258,17.627,4.697,17.256,5.068z M16.875,6.562
	c0.508,0,0.947,0.186,1.318,0.557C18.565,7.49,18.75,7.93,18.75,8.438v0.938c0,0.254-0.098,0.479-0.293,0.674
	c-0.176,0.176-0.391,0.264-0.645,0.264h-1.934c-0.059-0.449-0.185-0.879-0.381-1.289c-0.195-0.41-0.449-0.771-0.762-1.084
	c-0.312-0.332-0.664-0.605-1.055-0.82C14.053,6.748,14.492,6.562,15,6.562H16.875z M11.689,5.596
	c-0.645,0.645-1.416,0.967-2.314,0.967c-0.898,0-1.67-0.322-2.314-0.967S6.094,4.18,6.094,3.281s0.322-1.67,0.967-2.314
	S8.477,0,9.375,0c0.898,0,1.67,0.322,2.314,0.967c0.644,0.645,0.967,1.416,0.967,2.314S12.334,4.951,11.689,5.596z M11.631,7.5
	c0.938,0,1.728,0.332,2.373,0.996C14.668,9.141,15,9.932,15,10.869v0.85c0,0.391-0.137,0.723-0.41,0.996
	c-0.273,0.274-0.605,0.41-0.996,0.41H5.156c-0.391,0-0.723-0.137-0.996-0.41c-0.273-0.273-0.41-0.605-0.41-0.996v-0.85
	c0-0.938,0.322-1.729,0.967-2.373C5.381,7.832,6.182,7.5,7.119,7.5h0.264c0.645,0.312,1.309,0.469,1.992,0.469
	c0.684,0,1.348-0.156,1.992-0.469H11.631z M5.068,7.119C4.482,7.432,3.994,7.871,3.604,8.438c-0.391,0.566-0.635,1.191-0.732,1.875
	H0.938c-0.254,0-0.479-0.088-0.674-0.264C0.088,9.854,0,9.629,0,9.375V8.438C0,7.93,0.186,7.49,0.557,7.119
	c0.371-0.371,0.811-0.557,1.318-0.557H3.75C4.258,6.562,4.697,6.748,5.068,7.119z"/>
</svg>
