<?xml version="1.0" encoding="utf-8"?>
<!-- Generator: Adobe Illustrator 24.3.0, SVG Export Plug-In . SVG Version: 6.00 Build 0)  -->
<svg version="1.1" id="Layer_1" xmlns="http://www.w3.org/2000/svg" xmlns:xlink="http://www.w3.org/1999/xlink" x="0px" y="0px"
	 viewBox="0 0 13.125 15" style="enable-background:new 0 0 13.125 15;" xml:space="preserve">
<style type="text/css">
	.st0{fill:#2E3438;}
</style>
<path class="st0" d="M9.346,9.404c1.055,0.039,1.943,0.439,2.666,1.201c0.742,0.742,1.113,1.641,1.113,2.695v0.293
	c0,0.391-0.137,0.723-0.41,0.996C12.441,14.863,12.109,15,11.719,15H1.406c-0.391,0-0.723-0.137-0.996-0.41
	C0.137,14.316,0,13.984,0,13.594v-0.293c0-1.055,0.361-1.953,1.084-2.695c0.742-0.762,1.641-1.162,2.695-1.201l2.783,2.783
	L9.346,9.404z M0.41,2.344C0.137,2.285,0,2.129,0,1.875s0.137-0.41,0.41-0.469l5.566-1.348c0.391-0.078,0.781-0.078,1.172,0
	l5.566,1.348c0.274,0.078,0.41,0.244,0.41,0.498c0,0.234-0.137,0.381-0.41,0.439L9.902,3.018c0.273,0.547,0.41,1.104,0.41,1.67
	c0,1.035-0.371,1.924-1.113,2.666C8.477,8.076,7.598,8.438,6.562,8.438S4.639,8.076,3.896,7.354
	C3.174,6.611,2.812,5.723,2.812,4.688c0-0.566,0.137-1.123,0.41-1.67L1.289,2.549v1.553c0.234,0.137,0.352,0.332,0.352,0.586
	c0,0.234-0.107,0.43-0.322,0.586L1.758,7.09c0.02,0.078,0.02,0.146,0,0.205c0,0.059-0.02,0.107-0.059,0.146
	C1.66,7.48,1.611,7.5,1.553,7.5h-1.23c-0.078,0-0.146-0.039-0.205-0.117c-0.039-0.098-0.039-0.195,0-0.293l0.439-1.816
	C0.342,5.117,0.234,4.922,0.234,4.688c0-0.254,0.117-0.449,0.352-0.586V2.373L0.41,2.344z"/>
</svg>
