<?xml version="1.0" encoding="utf-8"?>
<!-- Generator: Adobe Illustrator 24.3.0, SVG Export Plug-In . SVG Version: 6.00 Build 0)  -->
<svg version="1.1" id="Layer_1" xmlns="http://www.w3.org/2000/svg" xmlns:xlink="http://www.w3.org/1999/xlink" x="0px" y="0px"
	 viewBox="0 0 11.25 15" style="enable-background:new 0 0 11.25 15;" xml:space="preserve">
<style type="text/css">
	.st0{fill:#2E3438;}
</style>
<path class="st0" d="M6.562,3.984c0,0.195,0.068,0.361,0.205,0.498S7.07,4.688,7.266,4.688h3.984v9.609
	c0,0.195-0.068,0.361-0.205,0.498S10.742,15,10.547,15H0.703c-0.195,0-0.361-0.068-0.498-0.205C0.068,14.658,0,14.492,0,14.297
	V0.703c0-0.195,0.068-0.361,0.205-0.498C0.342,0.068,0.508,0,0.703,0h5.859V3.984z M8.438,10.898v-0.234
	c0-0.234-0.117-0.352-0.352-0.352H3.164c-0.234,0-0.352,0.117-0.352,0.352v0.234c0,0.234,0.117,0.352,0.352,0.352h4.922
	C8.32,11.25,8.438,11.133,8.438,10.898z M8.438,9.023V8.789c0-0.234-0.117-0.352-0.352-0.352H3.164
	c-0.234,0-0.352,0.117-0.352,0.352v0.234c0,0.234,0.117,0.352,0.352,0.352h4.922C8.32,9.375,8.438,9.258,8.438,9.023z M8.438,6.914
	c0-0.234-0.117-0.352-0.352-0.352H3.164c-0.234,0-0.352,0.117-0.352,0.352v0.234C2.812,7.383,2.93,7.5,3.164,7.5h4.922
	c0.234,0,0.352-0.117,0.352-0.352V6.914z M11.25,3.574V3.75H7.5V0h0.176c0.195,0,0.361,0.068,0.498,0.205l2.871,2.871
	C11.182,3.213,11.25,3.379,11.25,3.574z"/>
</svg>
